<?xml version="1.0" encoding="iso-8859-1"?>
<!-- Generator: Adobe Illustrator 19.0.0, SVG Export Plug-In . SVG Version: 6.00 Build 0)  -->
<svg version="1.1" id="Capa_1" xmlns="http://www.w3.org/2000/svg" xmlns:xlink="http://www.w3.org/1999/xlink" x="0px" y="0px"
	 viewBox="0 0 511.766 511.766" style="enable-background:new 0 0 511.766 511.766;" xml:space="preserve">
<path style="fill:#5C9EFF;" d="M387.658,411.812c-6.169-2.312-24.895-8.457-34.312-11.995l-194.988-0.102
	c-9.527,3.577-28.347,9.77-34.578,12.097c-31.985,11.947-47.978,23.989-47.978,55.974c0,31.986,0,39.982,0,39.982h359.835
	c0,0,0-7.996,0-39.982C435.637,435.801,419.644,423.759,387.658,411.812z"/>
<path style="fill:#94C1FF;" d="M139.772,411.812c6.224-2.327,25.02-8.512,34.554-12.089l-15.969-0.008
	c-9.527,3.577-28.347,9.77-34.578,12.097c-31.985,11.947-47.978,23.989-47.978,55.974c0,31.986,0,39.982,0,39.982h15.993
	c0,0,0-7.996,0-39.982C91.794,435.801,107.787,423.759,139.772,411.812z"/>
<path style="fill:#2287FF;" d="M371.666,411.82c-6.224-2.327-25.02-8.512-34.555-12.089l15.969-0.008
	c9.527,3.577,28.347,9.77,34.578,12.097c31.985,11.947,47.979,23.989,47.979,55.974c0,31.986,0,39.982,0,39.982h-15.993
	c0,0,0-7.996,0-39.982C419.644,435.809,403.652,423.767,371.666,411.82z"/>
<polygon style="fill:#D7E9FF;" points="304.088,401.473 270.626,507.768 240.898,507.768 207.679,401.481 255.883,379.826 "/>
<rect x="227.893" y="347.843" style="fill:#5C9EFF;" width="55.975" height="41.48"/>
<rect x="227.893" y="347.843" style="fill:#94C1FF;" width="7.997" height="41.48"/>
<rect x="235.893" y="314.343" style="fill:#D7E9FF;" width="39.982" height="33.493"/>
<g>
	<rect x="235.893" y="315.853" style="fill:#FFFFFF;" width="7.997" height="31.985"/>
	<path style="fill:#FFFFFF;" d="M387.83,183.916c0,72.88-59.059,131.94-131.939,131.94c-72.873,0-131.939-59.06-131.939-131.94
		c0-72.873,59.066-131.94,131.939-131.94C328.772,51.976,387.83,111.043,387.83,183.916z"/>
</g>
<path style="fill:#5C9EFF;" d="M371.838,183.916c0,64.042-51.906,115.947-115.947,115.947c-64.033,0-115.947-51.905-115.947-115.947
	c0-64.033,51.914-115.947,115.947-115.947C319.932,67.969,371.838,119.883,371.838,183.916z"/>
<path style="fill:#94C1FF;" d="M271.883,283.87c-64.033,0-115.946-51.906-115.946-115.947c0-27.94,9.894-53.577,26.363-73.591
	c-25.855,21.264-42.356,53.491-42.356,89.584c0,64.042,51.914,115.947,115.947,115.947c36.093,0,68.328-16.492,89.592-42.348
	C325.461,273.976,299.832,283.87,271.883,283.87z"/>
<path style="fill:#D7E9FF;" d="M435.801,143.934c0,17.672-80.549,35.984-179.918,35.984S75.965,161.606,75.965,143.934
	c0-17.664,80.549-27.987,179.918-27.987C355.252,115.946,435.801,126.27,435.801,143.934z"/>
<path style="fill:#94C1FF;" d="M255.883,115.946c-2.679,0-5.341,0.008-7.996,0.023c95.651,0.547,171.921,10.776,171.921,27.964
	c0,17.195-76.27,34.992-171.921,35.937c2.655,0.031,5.317,0.047,7.996,0.047c99.369,0,179.918-18.312,179.918-35.984
	C435.801,126.27,355.252,115.946,255.883,115.946z"/>
<path style="fill:#FFFFFF;" d="M91.958,143.934c0-17.188,76.27-27.417,171.921-27.964c-2.654-0.016-5.317-0.023-7.996-0.023
	c-99.369,0-179.918,10.324-179.918,27.987c0,17.672,80.549,35.984,179.918,35.984c2.679,0,5.342-0.016,7.996-0.047
	C168.228,178.926,91.958,161.129,91.958,143.934z"/>
<path style="fill:#D7E9FF;" d="M379.826,71.467c0-89.958-247.887-89.958-247.887,0c0,39.982,0,60.473,0,60.473
	s55.975,15.992,123.944,15.992s123.943-15.993,123.943-15.993S379.826,103.452,379.826,71.467z"/>
<path style="fill:#94C1FF;" d="M131.94,115.946c0,10.597,0,15.993,0,15.993s55.974,15.993,123.943,15.993
	s123.943-15.993,123.943-15.993s0-6.2,0-15.993c0,0-55.975,15.993-123.943,15.993S131.94,115.946,131.94,115.946z"/>
<path style="fill:#FFFFFF;" d="M147.933,131.94c0,0,0-20.491,0-60.473c0-43.042,56.755-65.431,115.946-67.289
	C199.362,2.156,131.94,24.551,131.94,71.467c0,39.982,0,60.473,0,60.473s55.974,15.992,123.943,15.992
	c2.694,0,5.342-0.062,7.996-0.117C199.589,146.652,147.933,131.94,147.933,131.94z"/>
<path style="fill:#94C1FF;" d="M363.834,131.947c0,0,0-20.491,0-60.473c0-43.042-56.756-65.431-115.947-67.289
	c64.518-2.022,131.939,20.373,131.939,67.289c0,39.982,0,60.473,0,60.473s-55.974,15.993-123.943,15.993
	c-2.694,0-5.341-0.062-7.996-0.117C312.178,146.659,363.834,131.947,363.834,131.947z"/>
<path style="fill:#D7E9FF;" d="M147.933,131.94c0,0,0-4.076,0-12.081c-10.136-2.249-15.993-3.913-15.993-3.913
	c0,10.597,0,15.993,0,15.993s55.974,15.993,123.943,15.993c2.694,0,5.342-0.062,7.996-0.117
	C199.589,146.652,147.933,131.94,147.933,131.94z"/>
<path style="fill:#5C9EFF;" d="M363.834,131.947c0,0-51.602,14.696-115.846,15.875c2.624,0.047,5.231,0.109,7.895,0.109
	c67.969,0,123.943-15.993,123.943-15.993s0-6.2,0-15.993c0,0-5.856,1.664-15.992,3.913
	C363.834,127.871,363.834,131.947,363.834,131.947z"/>
<g>
	<polygon style="fill:#D7E9FF;" points="255.883,379.826 207.679,401.481 195.91,363.833 211.904,363.833 	"/>
	<polygon style="fill:#D7E9FF;" points="255.883,379.819 304.088,401.473 315.856,363.825 299.863,363.825 	"/>
</g>
<polygon style="fill:#94C1FF;" points="222.711,394.57 255.883,379.826 288.728,394.57 275.874,419.808 235.892,419.808 "/>
<g>
	<polygon style="fill:#5C9EFF;" points="222.711,394.57 226.162,401.176 255.883,387.822 255.883,379.826 	"/>
	<polygon style="fill:#5C9EFF;" points="255.883,379.826 255.883,387.815 285.408,401.082 288.728,394.57 	"/>
</g>
<polygon style="fill:#D7E9FF;" points="226.162,401.176 235.892,419.808 243.889,419.808 232.636,398.263 "/>
<polygon style="fill:#94C1FF;" points="279.872,478.984 270.626,507.768 240.898,507.768 231.894,478.984 243.889,419.808 
	267.877,419.808 "/>
<polygon style="fill:#D7E9FF;" points="251.885,419.808 243.889,419.808 231.894,478.984 240.898,507.768 248.894,507.768 
	239.89,478.984 "/>
<g>
	<polygon style="fill:#5C9EFF;" points="252.299,381.614 256.274,379.826 289.445,394.57 276.264,419.808 268.268,419.808 
		281.449,394.57 	"/>
	<polygon style="fill:#5C9EFF;" points="260.272,419.808 268.268,419.808 280.262,478.984 271.259,507.768 263.262,507.768 
		272.266,478.984 	"/>
</g>
<g>
	<polygon style="fill:#94C1FF;" points="229.395,507.768 240.898,507.768 195.91,363.833 163.925,395.819 195.91,443.797 
		187.914,467.785 	"/>
	<polygon style="fill:#94C1FF;" points="282.371,507.768 270.868,507.768 315.856,363.833 347.841,395.819 315.856,443.797 
		323.852,467.785 	"/>
</g>
<g>
	<path style="fill:#116FFF;" d="M435.801,511.766H75.965c-2.209,0-3.998-1.788-3.998-3.998v-39.982
		c0-34.32,17.773-47.47,50.579-59.723c2.756-1.03,7.973-2.811,13.759-4.794c7.286-2.491,15.501-5.303,20.811-7.294
		c2.054-0.805,4.373,0.266,5.146,2.335c0.781,2.069-0.266,4.373-2.335,5.146c-5.365,2.016-13.666,4.857-21.037,7.38
		c-5.701,1.952-10.831,3.71-13.549,4.725c-30.743,11.479-45.377,22.224-45.377,52.226v35.984h351.839v-35.984
		c0-30.002-14.635-40.746-45.378-52.226c-2.718-1.022-7.896-2.788-13.619-4.748c-7.277-2.483-15.438-5.271-20.701-7.255
		c-2.069-0.772-3.116-3.076-2.335-5.146c0.773-2.069,3.092-3.147,5.146-2.335c5.208,1.952,13.283,4.709,20.475,7.169
		c5.817,1.991,11.073,3.787,13.838,4.825c32.797,12.245,50.57,25.395,50.57,59.715v39.982
		C439.799,509.978,438.011,511.766,435.801,511.766z"/>
	<path style="fill:#116FFF;" d="M255.883,383.824c-0.453,0-0.914-0.078-1.366-0.242l-43.98-15.992
		c-2.077-0.75-3.146-3.046-2.389-5.123c0.75-2.077,3.053-3.147,5.123-2.39l43.98,15.993c2.076,0.749,3.146,3.045,2.389,5.122
		C259.053,382.817,257.515,383.824,255.883,383.824z"/>
	<path style="fill:#116FFF;" d="M255.883,383.824c-1.632,0-3.17-1.008-3.756-2.632c-0.758-2.077,0.312-4.373,2.39-5.122
		l43.979-15.993c2.077-0.758,4.373,0.312,5.123,2.39c0.757,2.077-0.312,4.373-2.39,5.123l-43.979,15.992
		C256.797,383.746,256.336,383.824,255.883,383.824z"/>
	<path style="fill:#116FFF;" d="M275.874,423.806h-39.982c-1.515,0-2.897-0.858-3.577-2.21l-7.996-15.992
		c-0.984-1.977-0.188-4.373,1.788-5.365c1.983-0.992,4.373-0.188,5.365,1.788l6.887,13.783h35.047l6.887-13.783
		c0.992-1.968,3.39-2.772,5.365-1.788c1.976,0.992,2.772,3.389,1.788,5.365l-7.996,15.992
		C278.771,422.947,277.389,423.806,275.874,423.806z"/>
	<path style="fill:#116FFF;" d="M235.9,463.787c-0.266,0-0.531-0.023-0.789-0.078c-2.171-0.43-3.577-2.537-3.14-4.701l7.997-39.981
		c0.437-2.179,2.624-3.568,4.701-3.139c2.171,0.429,3.577,2.538,3.14,4.7l-7.997,39.982
		C239.43,462.476,237.766,463.787,235.9,463.787z"/>
	<path style="fill:#116FFF;" d="M275.866,463.787c-1.866,0-3.53-1.312-3.913-3.217l-7.996-39.982c-0.438-2.162,0.969-4.271,3.14-4.7
		c2.077-0.43,4.264,0.96,4.7,3.139l7.997,39.981c0.437,2.164-0.969,4.271-3.14,4.701
		C276.397,463.764,276.131,463.787,275.866,463.787z"/>
	<path style="fill:#116FFF;" d="M229.395,511.766c-1,0-1.999-0.375-2.772-1.117l-41.481-39.981
		c-1.108-1.069-1.507-2.687-1.022-4.146l7.379-22.13L160.6,398.038c-1.055-1.585-0.852-3.693,0.5-5.044l31.985-31.986
		c1.562-1.562,4.092-1.562,5.654,0c1.562,1.562,1.562,4.092,0,5.654l-29.666,29.666l30.166,45.253
		c0.687,1.022,0.859,2.312,0.468,3.482l-7.199,21.592l39.661,38.232c1.593,1.538,1.64,4.068,0.109,5.653
		C231.488,511.36,230.442,511.766,229.395,511.766z"/>
	<path style="fill:#116FFF;" d="M240.898,511.766c-1.702,0-3.28-1.094-3.818-2.804l-44.987-143.935
		c-0.656-2.107,0.516-4.349,2.624-5.013c2.147-0.664,4.357,0.523,5.013,2.624l44.987,143.934c0.656,2.108-0.515,4.35-2.624,5.014
		C241.695,511.711,241.288,511.766,240.898,511.766z"/>
	<path style="fill:#116FFF;" d="M282.371,511.766c-1.047,0-2.094-0.406-2.882-1.227c-1.53-1.585-1.483-4.115,0.109-5.653
		l39.661-38.232l-7.199-21.592c-0.391-1.171-0.219-2.46,0.469-3.482l30.165-45.253l-29.666-29.666c-1.562-1.562-1.562-4.092,0-5.654
		c1.562-1.562,4.092-1.562,5.653,0l31.986,31.986c1.351,1.351,1.554,3.459,0.499,5.044l-30.899,46.354l7.379,22.13
		c0.484,1.46,0.086,3.077-1.022,4.146l-41.481,39.981C284.37,511.391,283.37,511.766,282.371,511.766z"/>
	<path style="fill:#116FFF;" d="M270.626,511.766c-0.398,0-0.796-0.055-1.194-0.188c-2.108-0.656-3.28-2.905-2.616-5.006
		l45.229-143.934c0.656-2.108,2.904-3.304,5.005-2.616c2.108,0.656,3.28,2.905,2.616,5.005l-45.229,143.935
		C273.906,510.672,272.328,511.766,270.626,511.766z"/>
	<path style="fill:#116FFF;" d="M219.9,399.817c-1.531,0-2.991-0.882-3.655-2.373c-0.898-2.016,0.016-4.381,2.031-5.279
		l35.983-15.992c2.015-0.883,4.381,0,5.278,2.029c0.898,2.016-0.016,4.381-2.03,5.279l-35.983,15.992
		C220.993,399.707,220.446,399.817,219.9,399.817z"/>
	<path style="fill:#116FFF;" d="M291.866,399.817c-0.546,0-1.093-0.109-1.624-0.344l-35.983-15.992
		c-2.015-0.898-2.929-3.264-2.03-5.279c0.905-2.029,3.256-2.912,5.278-2.029l35.983,15.992c2.016,0.898,2.929,3.264,2.031,5.279
		C294.858,398.935,293.397,399.817,291.866,399.817z"/>
	<path style="fill:#116FFF;" d="M255.883,495.773c-2.21,0-3.998-1.788-3.998-3.998v-39.982c0-2.21,1.788-3.998,3.998-3.998
		c2.21,0,3.998,1.788,3.998,3.998v39.981C259.881,493.985,258.093,495.773,255.883,495.773z"/>
	<path style="fill:#116FFF;" d="M255.883,183.916c-82.79,0-183.916-18.453-183.916-39.982c0-5.888,4.482-14.603,43.207-22.239
		c2.132-0.453,4.264,0.976,4.693,3.146c0.429,2.163-0.984,4.271-3.147,4.693c-30.15,5.95-36.756,12.408-36.756,14.399
		c0,9.277,76.137,31.985,175.919,31.985s175.92-22.708,175.92-31.985c0-1.991-6.606-8.449-36.757-14.399
		c-2.163-0.422-3.577-2.53-3.147-4.693c0.422-2.171,2.554-3.607,4.693-3.146c38.725,7.637,43.207,16.352,43.207,22.239
		C439.799,165.463,338.673,183.916,255.883,183.916z"/>
	<path style="fill:#116FFF;" d="M255.883,151.93c-67.742,0-124.475-15.985-125.044-16.149c-1.71-0.492-2.897-2.054-2.897-3.842
		V71.467C127.942,22.364,194.263,0,255.883,0s127.941,22.364,127.941,71.467v60.473c0,1.788-1.188,3.35-2.896,3.842
		C380.358,135.945,323.625,151.93,255.883,151.93z M135.938,128.87c12.284,3.187,62.003,15.063,119.945,15.063
		c57.997,0,107.67-11.877,119.945-15.063V71.467c0-41.668-60.34-63.471-119.945-63.471S135.938,29.799,135.938,71.467V128.87z"/>
	<path style="fill:#116FFF;" d="M255.883,135.938c-67.742,0-124.475-15.985-125.044-16.149c-2.124-0.601-3.351-2.819-2.741-4.943
		c0.602-2.116,2.788-3.397,4.943-2.741c0.554,0.156,56.263,15.837,122.842,15.837c66.642,0,122.288-15.681,122.842-15.837
		c2.141-0.656,4.342,0.617,4.943,2.741c0.609,2.124-0.617,4.342-2.74,4.943C380.358,119.953,323.625,135.938,255.883,135.938z"/>
	<path style="fill:#116FFF;" d="M235.892,351.839c-2.21,0-3.999-1.788-3.999-3.998v-23.989c0-2.21,1.789-3.998,3.999-3.998
		c2.209,0,3.998,1.788,3.998,3.998v23.989C239.89,350.051,238.102,351.839,235.892,351.839z"/>
	<path style="fill:#116FFF;" d="M275.874,351.839c-2.21,0-3.999-1.788-3.999-3.998v-23.989c0-2.21,1.789-3.998,3.999-3.998
		s3.998,1.788,3.998,3.998v23.989C279.872,350.051,278.084,351.839,275.874,351.839z"/>
	<path style="fill:#116FFF;" d="M283.87,351.839h-55.975c-2.21,0-3.998-1.788-3.998-3.998s1.788-3.999,3.998-3.999h55.975
		c2.21,0,3.998,1.789,3.998,3.999S286.08,351.839,283.87,351.839z"/>
	<path style="fill:#116FFF;" d="M283.87,359.835c-2.21,0-3.998-1.788-3.998-3.998v-7.996c0-2.21,1.788-3.999,3.998-3.999
		s3.998,1.789,3.998,3.999v7.996C287.868,358.047,286.08,359.835,283.87,359.835z"/>
	<path style="fill:#116FFF;" d="M227.896,359.835c-2.21,0-3.998-1.788-3.998-3.998v-7.996c0-2.21,1.788-3.999,3.998-3.999
		s3.998,1.789,3.998,3.999v7.996C231.894,358.047,230.106,359.835,227.896,359.835z"/>
	<path style="fill:#116FFF;" d="M255.883,375.828c-2.21,0-3.998-1.789-3.998-3.998v-15.993c0-2.21,1.788-3.998,3.998-3.998
		c2.21,0,3.998,1.788,3.998,3.998v15.993C259.881,374.039,258.093,375.828,255.883,375.828z"/>
	<path style="fill:#116FFF;" d="M255.883,319.854c-70.827,0-129.027-53.124-135.375-123.576c-0.375-4.107-0.562-8.27-0.562-12.362
		c0-1.375,0.023-2.749,0.062-4.115c0.062-2.21,2.14-3.788,4.115-3.881c2.21,0.07,3.943,1.905,3.881,4.115
		c-0.039,1.289-0.062,2.585-0.062,3.881c0,3.858,0.18,7.77,0.531,11.643c5.974,66.298,60.745,116.299,127.41,116.299
		c66.673,0,121.452-50.001,127.426-116.307c0.344-3.756,0.516-7.676,0.516-11.635c0-1.304-0.016-2.608-0.047-3.905
		c-0.055-2.209,1.694-4.037,3.904-4.092c2.163,0.141,4.037,1.695,4.092,3.905c0.031,1.359,0.047,2.725,0.047,4.092
		c0,4.201-0.188,8.363-0.547,12.354C384.926,266.722,326.718,319.854,255.883,319.854z"/>
	<path style="fill:#116FFF;" d="M255.883,303.861c-65.017,0-117.673-50.867-119.867-115.814c-0.07-2.202,1.656-4.053,3.866-4.131
		c2.007-0.086,4.045,1.656,4.131,3.866c2.046,60.604,51.188,108.083,111.871,108.083c60.684,0,109.832-47.479,111.887-108.083
		c0.078-2.21,1.929-3.803,4.131-3.866c2.209,0.078,3.936,1.929,3.865,4.131C373.564,252.993,320.901,303.861,255.883,303.861z"/>
</g>
<g>
</g>
<g>
</g>
<g>
</g>
<g>
</g>
<g>
</g>
<g>
</g>
<g>
</g>
<g>
</g>
<g>
</g>
<g>
</g>
<g>
</g>
<g>
</g>
<g>
</g>
<g>
</g>
<g>
</g>
</svg>
